<svg width="124" height="34" viewBox="0 0 124 34" fill="none" xmlns="http://www.w3.org/2000/svg">
<path d="M9.63878 4.25C14.1939 1.62009 19.8061 1.62009 24.3612 4.25V4.25C28.9164 6.87991 31.7224 11.7402 31.7224 17V17C31.7224 22.2598 28.9164 27.1201 24.3612 29.75V29.75C19.8061 32.3799 14.1939 32.3799 9.63878 29.75V29.75C5.08365 27.1201 2.27757 22.2598 2.27757 17V17C2.27757 11.7402 5.08365 6.87991 9.63878 4.25V4.25Z" fill="#F7C000"/>
<rect x="11" y="11" width="12" height="12" rx="6" fill="#181C32"/>
<path d="M57.28 16.908C57.28 18.236 57.112 19.444 56.776 20.532C56.44 21.604 55.936 22.532 55.264 23.316C54.608 24.1 53.784 24.7 52.792 25.116C51.816 25.532 50.68 25.74 49.384 25.74C48.04 25.74 46.872 25.532 45.88 25.116C44.888 24.684 44.064 24.084 43.408 23.316C42.752 22.532 42.264 21.596 41.944 20.508C41.624 19.42 41.464 18.212 41.464 16.884C41.464 15.124 41.752 13.588 42.328 12.276C42.904 10.964 43.776 9.94 44.944 9.204C46.128 8.468 47.616 8.1 49.408 8.1C51.12 8.1 52.56 8.468 53.728 9.204C54.896 9.924 55.776 10.948 56.368 12.276C56.976 13.588 57.28 15.132 57.28 16.908ZM43.744 16.908C43.744 18.348 43.944 19.588 44.344 20.628C44.744 21.668 45.36 22.468 46.192 23.028C47.04 23.588 48.104 23.868 49.384 23.868C50.68 23.868 51.736 23.588 52.552 23.028C53.384 22.468 54 21.668 54.4 20.628C54.8 19.588 55 18.348 55 16.908C55 14.748 54.552 13.06 53.656 11.844C52.76 10.612 51.344 9.996 49.408 9.996C48.112 9.996 47.04 10.276 46.192 10.836C45.36 11.38 44.744 12.172 44.344 13.212C43.944 14.236 43.744 15.468 43.744 16.908ZM69.166 21.948C69.166 22.78 68.958 23.476 68.542 24.036C68.126 24.596 67.534 25.02 66.766 25.308C65.998 25.596 65.086 25.74 64.03 25.74C63.134 25.74 62.358 25.668 61.702 25.524C61.062 25.38 60.494 25.18 59.998 24.924V23.004C60.51 23.26 61.126 23.5 61.846 23.724C62.582 23.932 63.326 24.036 64.078 24.036C65.15 24.036 65.926 23.868 66.406 23.532C66.886 23.18 67.126 22.716 67.126 22.14C67.126 21.82 67.038 21.532 66.862 21.276C66.686 21.02 66.366 20.764 65.902 20.508C65.454 20.252 64.806 19.964 63.958 19.644C63.126 19.324 62.414 19.004 61.822 18.684C61.23 18.364 60.774 17.98 60.454 17.532C60.134 17.084 59.974 16.508 59.974 15.804C59.974 14.716 60.414 13.876 61.294 13.284C62.19 12.692 63.358 12.396 64.798 12.396C65.582 12.396 66.31 12.476 66.982 12.636C67.67 12.78 68.31 12.988 68.902 13.26L68.182 14.94C67.83 14.78 67.454 14.644 67.054 14.532C66.67 14.404 66.278 14.308 65.878 14.244C65.478 14.164 65.07 14.124 64.654 14.124C63.79 14.124 63.126 14.268 62.662 14.556C62.214 14.828 61.99 15.204 61.99 15.684C61.99 16.036 62.094 16.34 62.302 16.596C62.51 16.836 62.854 17.076 63.334 17.316C63.83 17.54 64.486 17.812 65.302 18.132C66.118 18.436 66.814 18.748 67.39 19.068C67.966 19.388 68.406 19.78 68.71 20.244C69.014 20.692 69.166 21.26 69.166 21.948ZM80.5784 18.228C80.4824 17.892 80.3864 17.564 80.2904 17.244C80.1944 16.908 80.1064 16.596 80.0264 16.308C79.9624 16.004 79.8984 15.724 79.8344 15.468C79.7704 15.212 79.7224 14.996 79.6904 14.82H79.5944C79.5624 14.996 79.5144 15.212 79.4504 15.468C79.4024 15.724 79.3384 16.004 79.2584 16.308C79.1944 16.612 79.1144 16.932 79.0184 17.268C78.9384 17.588 78.8424 17.916 78.7304 18.252L76.4264 25.476H74.0264L70.4984 12.612H72.6824L74.4584 19.476C74.5864 19.94 74.7064 20.412 74.8184 20.892C74.9304 21.356 75.0264 21.804 75.1064 22.236C75.2024 22.652 75.2664 23.012 75.2984 23.316H75.3944C75.4424 23.124 75.4984 22.884 75.5624 22.596C75.6264 22.308 75.6904 22.004 75.7544 21.684C75.8344 21.364 75.9144 21.044 75.9944 20.724C76.0904 20.404 76.1784 20.116 76.2584 19.86L78.5384 12.612H80.8424L83.0504 19.86C83.1624 20.228 83.2744 20.62 83.3864 21.036C83.5144 21.452 83.6264 21.86 83.7224 22.26C83.8184 22.644 83.8824 22.988 83.9144 23.292H84.0104C84.0424 23.02 84.0984 22.684 84.1784 22.284C84.2744 21.868 84.3784 21.42 84.4904 20.94C84.6184 20.444 84.7464 19.956 84.8744 19.476L86.6744 12.612H88.8344L85.2584 25.476H82.7864L80.5784 18.228ZM96.0136 12.42C97.5816 12.42 98.7416 12.764 99.4936 13.452C100.246 14.14 100.622 15.236 100.622 16.74V25.5H99.0856L98.6776 23.676H98.5816C98.2136 24.14 97.8296 24.532 97.4296 24.852C97.0456 25.156 96.5976 25.38 96.0856 25.524C95.5896 25.668 94.9816 25.74 94.2616 25.74C93.4936 25.74 92.7976 25.604 92.1736 25.332C91.5656 25.06 91.0856 24.644 90.7336 24.084C90.3816 23.508 90.2056 22.788 90.2056 21.924C90.2056 20.644 90.7096 19.66 91.7176 18.972C92.7256 18.268 94.2776 17.884 96.3736 17.82L98.5576 17.748V16.98C98.5576 15.908 98.3256 15.164 97.8616 14.748C97.3976 14.332 96.7416 14.124 95.8936 14.124C95.2216 14.124 94.5816 14.228 93.9736 14.436C93.3656 14.628 92.7976 14.852 92.2696 15.108L91.6216 13.524C92.1816 13.22 92.8456 12.964 93.6136 12.756C94.3816 12.532 95.1816 12.42 96.0136 12.42ZM96.6376 19.284C95.0376 19.348 93.9256 19.604 93.3016 20.052C92.6936 20.5 92.3896 21.132 92.3896 21.948C92.3896 22.668 92.6056 23.196 93.0376 23.532C93.4856 23.868 94.0536 24.036 94.7416 24.036C95.8296 24.036 96.7336 23.74 97.4536 23.148C98.1736 22.54 98.5336 21.612 98.5336 20.364V19.212L96.6376 19.284ZM106.707 25.5H104.595V7.26H106.707V25.5ZM115.342 25.74C113.742 25.74 112.462 25.188 111.502 24.084C110.542 22.964 110.062 21.3 110.062 19.092C110.062 16.884 110.542 15.22 111.502 14.1C112.478 12.964 113.766 12.396 115.366 12.396C116.038 12.396 116.622 12.484 117.118 12.66C117.614 12.82 118.046 13.044 118.414 13.332C118.782 13.62 119.094 13.94 119.35 14.292H119.494C119.478 14.084 119.446 13.78 119.398 13.38C119.366 12.964 119.35 12.636 119.35 12.396V7.26H121.462V25.5H119.758L119.446 23.772H119.35C119.094 24.14 118.782 24.476 118.414 24.78C118.046 25.068 117.606 25.3 117.094 25.476C116.598 25.652 116.014 25.74 115.342 25.74ZM115.678 23.988C117.038 23.988 117.99 23.62 118.534 22.884C119.094 22.132 119.374 21.004 119.374 19.5V19.116C119.374 17.516 119.11 16.292 118.582 15.444C118.054 14.58 117.078 14.148 115.654 14.148C114.518 14.148 113.662 14.604 113.086 15.516C112.526 16.412 112.246 17.62 112.246 19.14C112.246 20.676 112.526 21.868 113.086 22.716C113.662 23.564 114.526 23.988 115.678 23.988Z" fill="#181C32"/>
</svg>